<svg id="Capa_1" data-name="Capa 1" xmlns="http://www.w3.org/2000/svg" viewBox="0 0 576.25 71.12"><defs><style>.cls-1{fill:#50b584;}.cls-2{fill:#f7d955;}.cls-3{fill:#374a5c;}.cls-4{fill:#fff;}.cls-5{fill:#287abb;}.cls-6{fill:#92d5f7;}.cls-7{fill:#91d5f7;}.cls-8{fill:#3e3b2a;}.cls-9{fill:#3c3928;}.cls-10{fill:#45402a;}.cls-11{fill:#4e4a34;}.cls-12{fill:#383422;}.cls-13{fill:#4c472d;}.cls-14{fill:#5d5945;}.cls-15{fill:#423f2f;}.cls-16{fill:#433f2a;}.cls-17{fill:#4d4a30;}.cls-18{fill:#403d28;}.cls-19{fill:#c7bd7e;}.cls-20{fill:#5d5633;}.cls-21{fill:#555136;}.cls-22{fill:#b7b166;}.cls-23{fill:#928749;}.cls-24{fill:#4a462f;}.cls-25{fill:#3f3a24;}.cls-26{fill:#6b685b;}.cls-27{fill:#2c2610;}.cls-28{fill:#64625d;}.cls-29{fill:#3f3b2a;}.cls-30{fill:#978e4a;}.cls-31{fill:#555241;}.cls-32{fill:#c5c3ab;}.cls-33{fill:#bfb984;}.cls-34{fill:#635c39;}.cls-35{fill:#524e33;}.cls-36{fill:#383524;}.cls-37{fill:#736841;}.cls-38{fill:#373322;}.cls-39{fill:#423e27;}.cls-40{fill:#b7ad5e;}.cls-41{fill:#5e5922;}.cls-42{fill:#6d653c;}.cls-43{fill:#443f27;}.cls-44{fill:#5e582c;}.cls-45{fill:#323027;}.cls-46{fill:#666348;}.cls-47{fill:#363215;}.cls-48{fill:#46412c;}.cls-49{fill:#6f684a;}.cls-50{fill:#8b8561;}.cls-51{fill:#49452e;}.cls-52{fill:#c0ad43;}.cls-53{fill:#978c3b;}.cls-54{fill:#5b5636;}.cls-55{fill:#3b361f;}.cls-56{fill:#c2ac42;}.cls-57{fill:#776e44;}.cls-58{fill:#484430;}.cls-59{fill:#cac15b;}.cls-60{fill:#6d6436;}.cls-61{fill:#3b3722;}.cls-62{fill:#9e933d;}.cls-63{fill:#756e2a;}</style></defs><path class="cls-1" d="M65.27.19h17C68.36,24,54.71,47.39,40.86,71.16c-3.2-5.46-6.27-10.64-9.29-15.83Q16.28,29.1,1,2.86C-.57.09-.55.07,2.79.07H19.5c-1.55.93-1.69,2-.72,3.58,6.88,11.52,13.53,23.17,20.33,34.74,1.69,2.86,1.79,2.86,3.51-.06,7-11.8,13.75-23.72,20.74-35.51A7.22,7.22,0,0,1,65.27.19Z" transform="translate(0 -0.04)"/><path class="cls-2" d="M492.05,10.27c-1.5-.63-2,1.38-2.78,2.32-4.51,5.62-8.9,11.33-13.34,17-4.27,5.52-11.27,5.5-14.27,0,.11-1.19,1.25-1.42,1.94-2,2.72-2.46,6.21-4.27,7-8.33,1.28-3.95-.21-7.12-4.18-8.86-.05-.08-.07-.21-.14-.26-7.92-5.45-25.26,0-30.16,5a72,72,0,0,1-5.23,5.11c-.52.44-1.89.46-1.13,1.57s1.57.51,2.27-.22c2.88-.92,5.41-2.57,8.11-3.86.51-.24,1.17-1.37,1.84-.11.66.9.08,1.77-.23,2.53C436.66,32.58,431.37,45,424.86,56.8c-.63,1.15-1.85,2.14-1.43,3.7,1,.44,2-.94,2.72-.17s-.24,1.83-.59,2.71c-.53,1.33-.54,1.33.52,2.32.95-2.39,2.09-4.64,4.44-6a1.57,1.57,0,0,0,.29-.75c-.07-2.46,2.18-1.29,3.21-2,.71-.39,1.3-1,2-1.32,1.83-.9,3.48-2.32,5.73-1.91l-.25.14c-2-.06-3.51,1.27-5.28,1.84-1.18.8-1.65,1.53.22,2,3.57-1.45,7.59-1.78,10.8-4.17a118.87,118.87,0,0,0,11.92-8.39,20,20,0,0,0,5.19-6.09c1.19-1.64,2.48-2.33,4-.43a7.53,7.53,0,0,1-1.44,2.9c-1.79,2.73-3.6,5.45-5.34,8.21-1.54,2.45-1,3.92,1.47,4.36,2.12-2.45,3.8-5.22,5.79-7.76,2.83-3.51,4.83-7.6,8.31-10.4,2-.51,3.78-2.14,6-.91-.24,3.08-1.53,5.88-2.36,8.79-1.45,5.1-3.08,10.15-4.46,15.27-.25.93-1.62,2.63.83,3a20.49,20.49,0,0,0,2-4.79,1.25,1.25,0,0,0,.51,1.14c2.32-1.37,1.77-4.12,3-6h0c2.75-7.28,4-15.07,7.59-22.08V29c-.41-1.65.48-3.11.66-4.68.57-1.16.22-2.61,1.14-3.66a3.49,3.49,0,0,0,.19-.85,14.07,14.07,0,0,1,1.12-5.43C493.92,12.7,493.54,10.91,492.05,10.27Zm-25.85.29a1,1,0,0,1-1,.15A5.62,5.62,0,0,0,466.2,10.56ZM442.49,52.92a38.41,38.41,0,0,1,3.68-2.11C445.12,51.39,443.83,52.15,442.49,52.92Zm14.45-14.38c-2.44,3.38-5.92,5.5-9.33,7.66-4.49,2.82-9,5.59-14.2,7.11-.27-1.6.73-2.8,1.35-4.11,1-2.14,2.32-4.17,3.15-6.38,1.32-3.52,3.44-5.9,7.39-6.26,1.83-.41,3.55-1.15,5.33-1.7s3.46-1.28,5.13.14C458.07,35.55,458.25,36.72,456.94,38.54Zm-12.22-8.37c.32-3.09,1.77-5.8,3-8.56.78-1.71,1.68-3.36,2.31-5.15s1.84-3,4-2.58h0c2.3.33,4.59-1.28,6.9-.08.86,1.38,3.33.81,3.61,2.64S462.88,19,462,20.09A26.22,26.22,0,0,1,444.72,30.17Zm39.62-1c-.7.6-1.44,1.29-1.9-.21.67-2,1.63-3.71,3.74-4.5-.23,1.68-.38,3.43-1.84,4.67Z" transform="translate(0 -0.04)"/><path class="cls-3" d="M65.27.19c-.73,3.06-2.79,5.44-4.3,8.09-6.32,11-12.77,22-19.17,32.91q-.51.73-1.08,1.41c-4-6.81-7.82-13.39-11.65-20S21.57,9.78,17.83,3.39C16.15.5,16.15.5,19.51.12c2.88,0,5.79.17,8.66-.06,2.32-.18,3.57.65,4.65,2.66,2.46,4.59,5.2,9,8,13.9,2.9-5,5.63-9.58,8.22-14.23A3.77,3.77,0,0,1,53,.07C57.1.24,61.19.15,65.27.19Z" transform="translate(0 -0.04)"/><path class="cls-2" d="M573.73,39.7c-1.88-1.39-3.75.17-5.63,0-.57,0-1.62.71-1.46-.76-5.41.6-10.78,1.57-16.25,1.58.28-1.56,1.2-2.91,1.54-4.46a11.18,11.18,0,0,1,1.16-3A130.49,130.49,0,0,0,561,12.6c-.07-.58-.36-1.24-.17-1.72,1.43-3.84-.59-4.76-3.07-4.63-6.48.33-13,.32-19.33,2.3h0c-.89,0-1.79.07-2.69,0a6,6,0,0,0-6,3.21c-1.32,2.13-1.25,4.41-2.36,6.46a238,238,0,0,0-10.09,21.79c-.34.81-.64,1.91-1.29,2.26a2.36,2.36,0,0,0-.14,4.3c2.73,1.34,2.86,3.27,2.16,5.92a3.11,3.11,0,0,0,1.64-2.95c.71-1.4.84-3.52,3-3.45,4.65.14,9.12-1.46,13.76-1.28,2.92.08,5.21-2.51,8.25-2,.83.12,1.51.43,1.65,1.37a45.67,45.67,0,0,0,7.93-.27,1.09,1.09,0,0,0-.38.6c1.56.38,3.25-.23,4.76.58,1.28-.43,2.64-.44,3.94-.76,1.11-.34,2.33,0,3.41-.71.49-.31-.82-.95.17-.71a11.32,11.32,0,0,0,4.34,0c1.89-.25,4.06-.28,5.24-2.29C575.4,39.71,574.21,40.39,573.73,39.7ZM540.25,9.13A3,3,0,0,1,539.13,9,4.23,4.23,0,0,0,540.25,9.13Zm6.46,29.72c-.93,2.27-2.09,2.82-4.17,2.6-.81-.16-1.77,0-2.3-.87-2.37-.93-4.78-.38-7.2-.19-3.09.24-6.18.79-9.3.41.08-3.92,2.76-6.87,3.94-10.38.3-.9,1.39-.94,2.3-1.08,3.89-.62,7.73-1.59,11.7-1.77a3.35,3.35,0,0,0,2.63-1.18c1.36-2.49,1.12-2.95-1.79-3H531.24c-.65-1.95,1.41-3,1.56-4.67a11.08,11.08,0,0,1,2.39-2.49c.8-2.22,3-2.27,4.76-2.86a13.93,13.93,0,0,1,3.12-.69,47.56,47.56,0,0,0,7.21-1.19c1.53-.93,3.7-.33,4.93-2.13.33-.49,1.3-.26,1.79.41-.21,5.08-3,9.28-4.89,13.76-2.08,5.06-3.34,10.32-5.4,15.32ZM555,44h1c-.25.27-.63.11-1,0Z" transform="translate(0 -0.04)"/><path class="cls-2" d="M521.07,12.94c-2.06-.45-2.06-.45-1.86-1.18a9.7,9.7,0,0,0-5.92-1.61c-8.1.42-15.1,3.09-20,9.9a.89.89,0,0,0,.7.38,11.32,11.32,0,0,0,4-1.56c.94-.58,1.88-1.75,3.29-1a7.77,7.77,0,0,1-1,4C496.47,30.69,492.71,39.55,488,48c-.4.72-1.43,2-.41,2.26,2.08.62,1,2,1.28,3.1,1.76-.85,2-3.34,4.12-3.81a2.65,2.65,0,0,1,2-1.38,3.2,3.2,0,0,0,1.93-1.36c1.22-1.7,3.25-1.64,5-2.26s2.62-2,4.14-2.53c-.51.7-2.34.48-1.79,2.17a1.82,1.82,0,0,0,1.21.36c3.28-1.62,6-4,8.93-6.15a13.6,13.6,0,0,0,4.22-5.2c1.14-1,.37-2.07,0-3a28,28,0,0,0-2-3.27c.29-1.53,1.74-2.08,2.76-2.89a9.65,9.65,0,0,0,4-6.82C523.72,15.2,522.66,13.93,521.07,12.94Zm-8.88,21.14a47.37,47.37,0,0,1-17.07,10.25,33.14,33.14,0,0,1,5-10.88c1.32-2.06,10.73-3.48,13.06-2.34a3.11,3.11,0,0,1-1,3ZM517,19.39a25.44,25.44,0,0,1-13.2,8.16c.18-1.32.34-2.46.5-3.6,1.4-2.25,2.18-4.79,3.36-7.14.55-1.11,1.15-2.07,2.61-1.94,2.07.17,4.2-.46,6.2.5C518.59,16.39,518.66,17.33,517,19.39Z" transform="translate(0 -0.04)"/><path class="cls-4" d="M230.58,40c1-3.68,1.76-6.59,2.5-9.5,1.15-4.48,1.13-4.49,6.18-3.87-1.76,5.78-3.43,11.55-5.28,17.27-.71,2.17-2.75.84-4.17,1.13-1.17.25-1.79-.35-2.11-1.52-.92-3.38-2-6.73-3.16-10.8-1.21,4.06-2.25,7.32-3.13,10.63-.35,1.26-.92,2-2.24,1.69s-3.38,1.12-4.1-1.18c-1.78-5.72-3.48-11.47-5.23-17.25,5-.51,5-.5,6.14,4,.75,2.86,1.53,5.71,2.49,9.29,1.17-4.07,2.31-7.47,3.07-10.95.42-1.9,1.09-2.53,3.1-2.62,2.27-.1,2.55,1.12,3,2.75C228.44,32.45,229.43,35.81,230.58,40Z" transform="translate(0 -0.04)"/><path class="cls-4" d="M279.79,31.74a8.81,8.81,0,0,0-7.89-5.87c-2.28-.14-4.21.81-6.37,2.23,0-2.53-.12-4.68,0-6.82.12-1.76-.33-2.46-2.26-2.37-1.71.09-2.67.16-2.62,2.37.16,7,.05,14.06.06,21.09,0,2.5,2.19,3.92,4.15,2.37,1-.78,1.29-.72,2.19-.26a9,9,0,0,0,10.07-1C280.14,40.91,281.27,35.87,279.79,31.74Zm-9.45,9.77c-3-.06-4.88-2.4-4.84-5.92s2.06-5.74,5.1-5.65c2.87.09,5,2.63,5,5.94S273.31,41.58,270.34,41.51Z" transform="translate(0 -0.04)"/><path class="cls-4" d="M300.25,29.31c-2.77-3.57-7.07-4.32-11.76-2-.63.31-.87.88-1.46-.25-.79-1.51-2.52-.67-3.74-.53s-.63,1.48-.63,2.27c-.05,7.12,0,14.25-.09,21.37,0,1.75.69,2,2.1,1.88s2.95.53,2.81-1.85c-.12-2.13,0-4.28,0-6.4a3.25,3.25,0,0,1,.8,0c4.5,2.59,8.86,2.22,11.65-1A11.36,11.36,0,0,0,300.25,29.31Zm-7.8,12.21c-3,0-5.11-2.33-5.16-5.72s2.07-5.83,5-5.87,5.07,2.21,5.08,5.7S295.42,41.48,292.45,41.52Z" transform="translate(0 -0.04)"/><path class="cls-4" d="M356.45,26.7a58,58,0,0,1-4.3,5.46c-2,2-1.77,3.54-.06,5.56s3.19,4.48,5,7.08c-3.14.43-5.65,1-7.24-2.41C348.76,40,347,38,345,35.08c0,3.27-.1,5.7,0,8.12.12,2.06-1.16,1.86-2.5,1.89s-2.43,0-2.41-2c.11-7.44.13-14.88,0-22.32,0-2.12,1.11-1.89,2.43-1.88s2.57-.23,2.5,1.87c-.14,4.32,0,8.65,0,13.75a60.34,60.34,0,0,0,3.77-4.95C350.51,26.8,352.8,25.64,356.45,26.7Z" transform="translate(0 -0.04)"/><path class="cls-4" d="M320.05,42.51a41.82,41.82,0,0,1,0-4.75V33.9c0-5.95-3.19-8.75-9.11-8a18.42,18.42,0,0,0-4,1.05c-.87.32-2.51.34-1.59,2.06.57,1.09,1,2.44,2.81,1.44a6.67,6.67,0,0,1,5-.4,2.6,2.6,0,0,1,2.08,3l0,.15c-.43,1.75-1.56-.17-2.41.13-.5.18-1.17-.17-1.76-.17-2.88,0-5.4.89-6.83,3.47a5.45,5.45,0,0,0,.69,6.4,6.83,6.83,0,0,0,7.3,2.28,10.45,10.45,0,0,1,5.29-.33C319.38,45.5,320.29,44.66,320.05,42.51ZM311.91,42c-2,0-3.6-.75-3.51-2.86S310,36.33,312,36.39s3.21.86,3.27,2.76C315.27,41.28,313.75,42,311.91,42Z" transform="translate(0 -0.04)"/><path class="cls-4" d="M252.59,26.39a9.42,9.42,0,0,0-11.37,4.14A10.88,10.88,0,0,0,243,43.15c3.14,2.94,9.14,3.29,12.8.65.83-.59,2.52-1.21,1.37-2.6-.87-1.06-1.92-2.33-3.85-.7a5.25,5.25,0,0,1-7.39-.76.76.76,0,0,0-.08-.11,2.62,2.62,0,0,1-.73-2.19c.32-1.08,1.33-.61,2-.64,1.49-.07,3,0,4.49,0H257c1.05,0,1.32-.39,1.4-1.38A8.63,8.63,0,0,0,252.59,26.39ZM253.4,33c-.23,1.75-1.94.55-3,.87a4,4,0,0,1-1.19,0l-4-.79c-.23-1.31.85-2.39,2-3a4.08,4.08,0,0,1,3.75-.18c1.43.59,2.58,1.68,2.39,3.11Z" transform="translate(0 -0.04)"/><path class="cls-5" d="M187.32,27.68c-4.2,2.43-8,4.61-11.74,6.81a1.93,1.93,0,0,1-2.19-.12c-3.68-2.17-7.39-4.27-11.59-6.68C166.09,25.33,170,23.15,174,21c.7-.38,1.35,0,2,.35Z" transform="translate(0 -0.04)"/><path class="cls-5" d="M160.92,29.5,172.27,36a2.18,2.18,0,0,1,1.43,2V50.21c-4.24-2.31-8-4.4-11.88-6.46a1.73,1.73,0,0,1-.88-1.74Z" transform="translate(0 -0.04)"/><path class="cls-5" d="M175.52,50.21V38a1.94,1.94,0,0,1,1.1-1.9c3.71-2.1,7.4-4.22,11.62-6.63V42.42c0,1-.74,1.3-1.44,1.68Z" transform="translate(0 -0.04)"/><path class="cls-4" d="M336.81,31.52c-3.9-2.16-6.11-2.13-8.23,0A5.78,5.78,0,0,0,335,41c.9-.39,1.8-1.5,2.34.34.37,1.28,1.11,2.45-.86,3.34-4,1.79-9.39.86-12.08-2.35a10.09,10.09,0,0,1-.17-12.83,10.39,10.39,0,0,1,12.22-2.62C339.57,28.31,336.77,29.89,336.81,31.52Z" transform="translate(0 -0.04)"/><path class="cls-6" d="M173.66,10.18v7.34c0,1.31-1,1.86-1.95,2.4-3.48,1.92-7,3.83-10.43,5.79a2.49,2.49,0,0,1-3,0c-1.71-1.18-3.55-2.17-5.85-3.56Z" transform="translate(0 -0.04)"/><path class="cls-6" d="M173.66,61.5c-6.73-3.76-12.94-7.26-19.17-10.71-1.15-.64-1.2-1.23-.11-1.88,1.8-1.06,3.63-2.06,5.42-3.12.77-.45,1.34,0,1.93.3,3.49,1.91,7,3.86,10.46,5.72a2.55,2.55,0,0,1,1.49,2.63C173.66,56.61,173.66,58.78,173.66,61.5Z" transform="translate(0 -0.04)"/><path class="cls-6" d="M196.76,22.18c-2.31,1.36-4.18,2.44-6,3.56a2.46,2.46,0,0,1-2.77,0c-3.53-2-7.1-4-10.67-5.92A2.89,2.89,0,0,1,175.54,17c.07-2.06,0-4.12,0-6.73Z" transform="translate(0 -0.04)"/><path class="cls-6" d="M175.53,61.47c0-2.74.06-5,0-7.25a2.59,2.59,0,0,1,1.66-2.54c3.42-1.84,6.81-3.72,10.22-5.59a1.82,1.82,0,0,1,2.19-.1c1.93,1.36,4.27,2.11,6.35,4Z" transform="translate(0 -0.04)"/><path class="cls-6" d="M197.72,24.39V46c0,1.41-.22,2-1.85,1.29-5-2.19-5.42-2.76-5.42-8.09v-5C190.45,27.51,190.75,27.1,197.72,24.39Z" transform="translate(0 -0.04)"/><path class="cls-7" d="M151.66,24.26c2.06,1.18,3.93,2.27,5.83,3.31a2.18,2.18,0,0,1,1.21,2.18V42.53a2.34,2.34,0,0,1-1.36,2.38c-1.84,1-3.61,2-5.68,3.25Z" transform="translate(0 -0.04)"/><path class="cls-4" d="M392.59,29.39c2,.11,1.94,1.26,1.81,2.2-.35,2.47.35,3.74,3.12,3.21,1-.2,2.06-.1,2.14,1.32.09,1.57-1,1.85-2.14,1.62-2.79-.54-3.47.75-3.12,3.21.13.94.25,2.08-1.29,2.17-1.73.1-1.74-1.1-1.57-2.19.37-2.51-.4-3.7-3.14-3.19-1,.18-2.06.12-2.14-1.32s.95-1.85,2.15-1.62c2.74.51,3.5-.69,3.13-3.2C391.38,30.47,391.39,29.25,392.59,29.39Z" transform="translate(0 -0.04)"/><path class="cls-4" d="M109.49,44.88c-1.11.07-1.24-1-1.1-2,.34-2.51-.28-4-3.21-3.4-1.07.2-2,0-2.07-1.42,0-1.63,1.12-1.71,2.25-1.53,2.49.41,3.43-.49,3-3-.15-1-.41-2.35,1.36-2.38,2,0,1.62,1.51,1.47,2.55-.33,2.42.67,3.14,2.94,2.82,1.07-.15,2.31-.23,2.35,1.42s-1.11,1.72-2.25,1.53c-2.51-.43-3.4.52-3,3C111.41,43.49,111.66,44.81,109.49,44.88Z" transform="translate(0 -0.04)"/><path class="cls-8" d="M505.66,43.8c4.63-3.3,9.55-6.27,13-10.94a2.37,2.37,0,0,1-.81,2.4,41.52,41.52,0,0,1-16.41,11.51c-.62.17-1.23.34-1.51-.51C501.43,44.55,503.55,44.22,505.66,43.8Z" transform="translate(0 -0.04)"/><path class="cls-9" d="M447.3,52.78c4.31-3.19,8.68-6.32,12.9-9.62a14.67,14.67,0,0,0,3.85-4.89c.55-.16.75.11.74.62a24.16,24.16,0,0,1-8.13,8.5c-2.85,2-5.67,3.94-8.51,5.91C447.71,53.39,447.28,53.47,447.3,52.78Z" transform="translate(0 -0.04)"/><path class="cls-10" d="M551.57,36.39c.29-3.27,2.38-5.81,3.53-8.73,2-5,3.94-10.08,5.9-15.12-.46,5.42-3.06,10.17-4.91,15.15-1.18,3.18-3.3,6-4,9.38C551.59,37.14,551.26,37,551.57,36.39Z" transform="translate(0 -0.04)"/><path class="cls-11" d="M519.66,49.58c-.14-2.79,1.17-4,4-4.15,4.33-.2,8.65-.69,13-1,.78.5,1.81-.2,2.52.54-4.63.57-9.25,1.38-13.91,1.62C522.71,46.68,520.83,47.24,519.66,49.58Z" transform="translate(0 -0.04)"/><path class="cls-12" d="M463.13,53.71c3.78-6.32,8.38-12.08,12.78-18,.25-.33.87-.38,1.32-.57a.5.5,0,0,1,.16.49c-.05.16-.1.25-.15.25-4.54,4.94-7.87,10.79-12.06,16C464.66,52.6,464.48,53.86,463.13,53.71Z" transform="translate(0 -0.04)"/><path class="cls-13" d="M482.66,52.05c.11-3.92,2.3-7.28,3.1-11,.59-2.78,1.65-5.47,2.43-8.22A6.59,6.59,0,0,1,490.26,30c.24,2.36-1.59,4-2.2,6.13C486.53,41.48,485.46,47.07,482.66,52.05Z" transform="translate(0 -0.04)"/><path class="cls-14" d="M562.23,44.13c3.78-1.84,8.09-1.31,12-2.69.53-.19,1.19-.13,1.52-.74,1.27,1.64-.18,1.75-1.19,2-3.44.72-6.9,1.38-10.35,2.06C563.6,44.32,562.71,44.91,562.23,44.13Z" transform="translate(0 -0.04)"/><path class="cls-15" d="M447.3,52.78l.88.53c-4.56,3-9.95,3.84-14.84,6-1.17-.57-.34-1.07.09-1.49.85-.83,2.09-.48,3.07-.93C440.09,55.46,443.93,54.73,447.3,52.78Z" transform="translate(0 -0.04)"/><path class="cls-16" d="M461.66,29.56c-1.13-1.21.28-1.59.83-2,3.28-2.28,6.26-4.8,8.12-8.41a5.79,5.79,0,0,1-2.32,5.07A52.34,52.34,0,0,1,461.66,29.56Z" transform="translate(0 -0.04)"/><path class="cls-17" d="M432.08,21.58c.44-2.2,2.81-.87,4-2.18,1.4-1.58,3.65-2.21,5.64-3,.4-.17,1-.64,1.25,0s-.57.88-.91,1.3a19.71,19.71,0,0,0-2.94,1.2C436.9,20.15,434.83,21.67,432.08,21.58Z" transform="translate(0 -0.04)"/><path class="cls-18" d="M516.66,26.62c-1.58-1.1,0-1.46.54-1.82,3-2,5.28-4.39,6.25-7.89.61,3.41-1.35,5.48-3.81,7.32C518.57,25,517.6,25.82,516.66,26.62Z" transform="translate(0 -0.04)"/><path class="cls-19" d="M573.74,39.7c-2.87-.14-5.62,1.3-8.67.61L566.66,39c1.55-.17,3.09-.38,4.65-.5C572.33,38.39,573.55,38.06,573.74,39.7Z" transform="translate(0 -0.04)"/><path class="cls-20" d="M546.33,44.28a73,73,0,0,1,12-.78c-1.64,1.44-3.21.53-4.42,1.11l-6.37.66C546.78,45.39,546.44,44.94,546.33,44.28Z" transform="translate(0 -0.04)"/><path class="cls-21" d="M493.94,19.79c2.2-1.06,4.39-2.14,6.6-3.17.38-.18.9-.66,1.22,0,.11.21-.28.67-.45,1-2.53.33-4,3.08-6.72,2.95C494,20.58,493.82,20.33,493.94,19.79Z" transform="translate(0 -0.04)"/><path class="cls-22" d="M436.5,56.84c-.75,1.2-3.1.33-3.16,2.41a.86.86,0,0,1-1.08.37c-.53-.4-1.36.15-1.8-.55v-.53c.46-1.85,2.81-1.12,3.56-2.57a1.93,1.93,0,0,1,1.76-1.08.94.94,0,0,1,.79.78C437,56.1,434.3,56.28,436.5,56.84Z" transform="translate(0 -0.04)"/><path class="cls-13" d="M479.54,58.33c1.6-1.84,1.36-4.59,3.16-6.33-.09,3.23-1.87,5.83-3.24,9.41L479,59.23A1.13,1.13,0,0,1,479.54,58.33Z" transform="translate(0 -0.04)"/><path class="cls-23" d="M464.79,38.89l-.74-.62c1.17-1.89,3.27-2.41,4.85-1.09.64.54-.51.62-.46,1.06C467.2,38.31,465.91,38.12,464.79,38.89Z" transform="translate(0 -0.04)"/><path class="cls-24" d="M539.19,44.92c-.83-.18-1.8.2-2.52-.54,2.25.1,3.77-2.19,6.1-1.84.64.1,1.39-.41,1.9.36C543.22,44.59,540.66,43.27,539.19,44.92Z" transform="translate(0 -0.04)"/><path class="cls-25" d="M430.46,59.07l1.8.55c-3.78.09-4.09,3.86-6.18,5.74C426.2,62.39,427.84,60.39,430.46,59.07Z" transform="translate(0 -0.04)"/><path class="cls-26" d="M477.24,35.91v-.74C478.6,34,480.43,34,482,33.37c1-.42,1.29.41,1.17,1.31C481.09,34.59,479.26,35.69,477.24,35.91Z" transform="translate(0 -0.04)"/><path class="cls-27" d="M479.54,58.33c-.17.3-.35.6-.53.9-.88.65-.73,2-1.83,2.54l2.22-7.1.51.12C479.79,56,479.66,57.15,479.54,58.33Z" transform="translate(0 -0.04)"/><path class="cls-28" d="M500.07,46.24l1.35.53L494,49.63c-.27-.68.1-1.12.57-1.53C496.51,47.74,497.72,45.33,500.07,46.24Z" transform="translate(0 -0.04)"/><path class="cls-29" d="M488.87,53c1.29-1.35,1.38-3.82,3.86-4,.54.69-.11.89-.5,1.19-1.44.79-1.53,2.72-3,3.47a.28.28,0,0,1-.23-.11A3.39,3.39,0,0,1,488.87,53Z" transform="translate(0 -0.04)"/><path class="cls-30" d="M521.07,12.62c-1.43,1-2.58.14-4-.52.64-.92,1.44-.55,2.1-.66A3,3,0,0,1,521.07,12.62Z" transform="translate(0 -0.04)"/><path class="cls-31" d="M562.23,44.13c.66.19,1.43,0,2,.59-1.85.14-3.64,1.06-5.55.47C559.49,43.67,561,44.25,562.23,44.13Z" transform="translate(0 -0.04)"/><path class="cls-32" d="M492.23,50.18c.24-.37.7-.64.5-1.19,0-1.28.61-1.89,1.93-1.71a.76.76,0,0,1,0,1.07l0,0L494,49.62A2,2,0,0,1,492.23,50.18Z" transform="translate(0 -0.04)"/><path class="cls-33" d="M493.94,19.79c.22.25.44.5.65.76-.62.66-1.24,1.32-2.3,1a1.23,1.23,0,0,1-.58-1.33,1,1,0,0,1,0-.34c.39-.36-.07-1.36,1-1.26l.61,1.08Z" transform="translate(0 -0.04)"/><path class="cls-34" d="M492.66,18.66l-1,1.26c.29-1.91,0-4,1.63-5.52C493.14,15.82,492.91,17.24,492.66,18.66Z" transform="translate(0 -0.04)"/><path class="cls-35" d="M551.57,36.39l.54.68a10.07,10.07,0,0,1-1.72,3.43C549,38.66,551.4,37.85,551.57,36.39Z" transform="translate(0 -0.04)"/><path class="cls-36" d="M490.25,29c-1.31-1.71.31-3.22.36-4.84.49-.1.8,0,.5.56C490.83,26.1,490.54,27.53,490.25,29Z" transform="translate(0 -0.04)"/><path class="cls-37" d="M491.11,24.67c-.16-.19-.33-.38-.5-.56.47-1.26.12-2.74,1.1-3.85.52.3.52.83.58,1.33C491.22,22.39,492,23.83,491.11,24.67Z" transform="translate(0 -0.04)"/><path class="cls-38" d="M445.43,37c-3.79.3-5.78,2.58-7.13,5.91-1.43,3.54-3.24,6.92-4.89,10.36-.66.23-1.28.32-.79-.68,2.41-4.87,4.79-9.74,7.3-14.55.84-1.63,2.82-1.1,4.24-1.68C444.74,36.3,445.45,36,445.43,37Z" transform="translate(0 -0.04)"/><path class="cls-39" d="M454.12,13.88c-2.46.38-3.43,2.16-4.26,4.21-1.65,4-3.42,8-5.14,12.07-1.31-2,.53-3.53,1.07-5.12a81.89,81.89,0,0,1,4.45-9.94C451,13.52,452.24,12.45,454.12,13.88Z" transform="translate(0 -0.04)"/><path class="cls-40" d="M436.59,55.67l-.79-.78c1.86-1,3.24-3.66,6-1.79a.39.39,0,0,1,.26.49l0,0C440.12,54.08,438.6,55.5,436.59,55.67Z" transform="translate(0 -0.04)"/><path class="cls-41" d="M442,53.64a1.32,1.32,0,0,0-.24-.54c2.34-2.3,5.54-3.14,8.34-4.7C448,51,444.66,51.86,442,53.64Z" transform="translate(0 -0.04)"/><path class="cls-42" d="M461,13.82c-2.3-.09-4.58,1.41-6.9.07C456.42,13,458.71,11.91,461,13.82Z" transform="translate(0 -0.04)"/><path class="cls-43" d="M486.18,24.39q-1.86,2.25-3.74,4.49c-.35-.1-1-.22-.84-.52a24.15,24.15,0,0,1,4-5C486.66,22.53,486,24,486.18,24.39Z" transform="translate(0 -0.04)"/><path class="cls-44" d="M434,56c1,1-.2,1-.64,1.28-.93.5-1.94.87-2.92,1.29-1.41-1.48-.3-2,1-2.27A22.06,22.06,0,0,1,434,56Z" transform="translate(0 -0.04)"/><path class="cls-45" d="M455.76,35a9.93,9.93,0,0,0-5.48.38c-.63.29-1.21.49-1.2-.55C451.32,34.25,453.6,32.47,455.76,35Z" transform="translate(0 -0.04)"/><path class="cls-46" d="M449.08,34.82l1.2.55L445.43,37l-1.27-.64Z" transform="translate(0 -0.04)"/><path class="cls-47" d="M466.43,10.3c-.42,1.31-1.2,1.28-3.29-.17,1.19-.65,2.23.48,3.33.2Z" transform="translate(0 -0.04)"/><path class="cls-48" d="M544.31,26.39c1.1,1.3-.16,1.18-.83,1.29-3.9.64-7.78,1.42-11.7,1.82-2.55.26-4.13,1.15-4.93,3.69s-2.06,5.07-3.11,7.59c-.62.12-1,0-.7-.74,1.39-3.27,2.8-6.54,4.18-9.82.52-1.22,1.63-1.29,2.72-1.45l12.94-2A12.06,12.06,0,0,0,544.31,26.39Z" transform="translate(0 -0.04)"/><path class="cls-49" d="M557,9.82c-2.27.58-4.15,2.29-6.62,2.27-.73.44-1.22.43-1.2-.6,1.76-1.53,4.36-1.21,6.16-2.81A1.06,1.06,0,0,1,557,9.82Z" transform="translate(0 -0.04)"/><path class="cls-50" d="M549.18,11.49c.23.53.72.56,1.2.6-2.36.54-4.63,1.56-7.14,1.18a.65.65,0,0,1-.17-.9.39.39,0,0,1,.08-.1C544.94,10.39,547.09,11.19,549.18,11.49Z" transform="translate(0 -0.04)"/><path class="cls-51" d="M543.15,12.29l.09,1c-2.74,1-6.25.29-7.91,3.61-.56.06-.76-.17-.6-.7.7-2.75,3.31-2.67,5.3-3.44A13.16,13.16,0,0,1,543.15,12.29Z" transform="translate(0 -0.04)"/><path class="cls-52" d="M538.4,8.53h4.34c-1.49.93-3,2.55-4.32,0Z" transform="translate(0 -0.04)"/><path class="cls-53" d="M540.25,40.58a3.51,3.51,0,0,1,2.29.87c-1.76.73-3.58.43-5.48.07Z" transform="translate(0 -0.04)"/><path class="cls-54" d="M558.46,11.27c.49-1.07-.28-2.85,1.91-3.25A4,4,0,0,1,558.46,11.27Z" transform="translate(0 -0.04)"/><path class="cls-55" d="M533.28,18.7l-2,4.73c-1.6-2.1,1.07-3.11,1.23-4.77a.53.53,0,0,1,.74,0Z" transform="translate(0 -0.04)"/><path class="cls-56" d="M561.8,40.87c-1.19.69-2.35,1.43-3.88.59C559.19,40.19,560.57,40.86,561.8,40.87Z" transform="translate(0 -0.04)"/><path class="cls-57" d="M533.28,18.7h-.81c.4-1.14.87-2.23,2.26-2.48l.6.7Z" transform="translate(0 -0.04)"/><path class="cls-58" d="M513.16,31.1c-2.61-1.16-4.94.38-7.4.64-4.87.52-6.7,3.74-8.31,7.52-.73,1.71-1.55,3.38-2.33,5.07-.68.25-1.28.25-.83-.69,1.68-3.47,3.42-6.92,5.18-10.36.21-.41.63-.93,1-1,4-.68,7.47-3.32,11.82-2.53C513.66,30,512.77,30.75,513.16,31.1Z" transform="translate(0 -0.04)"/><path class="cls-59" d="M494.66,48.39V47.27a2.28,2.28,0,0,0,1.77-1.19c1.59-1,3.49-1.22,5.18-2,.83,0,1.42-1.1,2.38-.53l1.64.19a21.72,21.72,0,0,1-5.56,2.44Z" transform="translate(0 -0.04)"/><path class="cls-60" d="M516.43,15h-6.77c-.34-.34-1-.08-1.25-.55C511.12,14.09,513.9,12.66,516.43,15Z" transform="translate(0 -0.04)"/><path class="cls-61" d="M508.41,14.47l1.25.55c-2.3,1.25-2.38,3.83-3.51,5.79-.56,1-.59,2.29-1.88,2.78A30.09,30.09,0,0,1,508.41,14.47Z" transform="translate(0 -0.04)"/><path class="cls-62" d="M501.86,44.39a10.19,10.19,0,0,1-5.43,1.68c1.24-2.06,3.42-2,5.42-2.42C502.2,43.92,502.2,44.16,501.86,44.39Z" transform="translate(0 -0.04)"/><path class="cls-63" d="M501.86,44.39v-.74l5.92-3.46c-1,2.28-2.9,2.23-3.78,3.4Z" transform="translate(0 -0.04)"/></svg>