<?xml version="1.0" encoding="utf-8"?>
<!-- Generator: Adobe Illustrator 26.0.0, SVG Export Plug-In . SVG Version: 6.00 Build 0)  -->
<svg version="1.1" id="Capa_1" xmlns="http://www.w3.org/2000/svg" xmlns:xlink="http://www.w3.org/1999/xlink" x="0px" y="0px"
	 viewBox="0 0 576.3 71.1" style="enable-background:new 0 0 576.3 71.1;" xml:space="preserve">
<style type="text/css">
	.st0{fill:#50B584;}
	.st1{fill:#F7D955;}
	.st2{fill:#374A5C;}
	.st3{fill:#FFFFFF;stroke:#000000;stroke-miterlimit:10;}
	.st4{fill:#287ABB;}
	.st5{fill:#92D5F7;}
	.st6{fill:#91D5F7;}
	.st7{fill:#3E3B2A;}
	.st8{fill:#3C3928;}
	.st9{fill:#45402A;}
	.st10{fill:#4E4A34;}
	.st11{fill:#383422;}
	.st12{fill:#4C472D;}
	.st13{fill:#5D5945;}
	.st14{fill:#423F2F;}
	.st15{fill:#433F2A;}
	.st16{fill:#4D4A30;}
	.st17{fill:#403D28;}
	.st18{fill:#C7BD7E;}
	.st19{fill:#5D5633;}
	.st20{fill:#555136;}
	.st21{fill:#B7B166;}
	.st22{fill:#928749;}
	.st23{fill:#4A462F;}
	.st24{fill:#3F3A24;}
	.st25{fill:#6B685B;}
	.st26{fill:#2C2610;}
	.st27{fill:#64625D;}
	.st28{fill:#3F3B2A;}
	.st29{fill:#978E4A;}
	.st30{fill:#555241;}
	.st31{fill:#C5C3AB;}
	.st32{fill:#BFB984;}
	.st33{fill:#635C39;}
	.st34{fill:#524E33;}
	.st35{fill:#383524;}
	.st36{fill:#736841;}
	.st37{fill:#373322;}
	.st38{fill:#423E27;}
	.st39{fill:#B7AD5E;}
	.st40{fill:#5E5922;}
	.st41{fill:#6D653C;}
	.st42{fill:#443F27;}
	.st43{fill:#5E582C;}
	.st44{fill:#323027;}
	.st45{fill:#666348;}
	.st46{fill:#363215;}
	.st47{fill:#46412C;}
	.st48{fill:#6F684A;}
	.st49{fill:#8B8561;}
	.st50{fill:#49452E;}
	.st51{fill:#C0AD43;}
	.st52{fill:#978C3B;}
	.st53{fill:#5B5636;}
	.st54{fill:#3B361F;}
	.st55{fill:#C2AC42;}
	.st56{fill:#776E44;}
	.st57{fill:#484430;}
	.st58{fill:#CAC15B;}
	.st59{fill:#6D6436;}
	.st60{fill:#3B3722;}
	.st61{fill:#9E933D;}
	.st62{fill:#756E2A;}
	.st63{fill:#50B584;stroke:#374A5C;stroke-width:0.25;stroke-miterlimit:10;}
	.st64{font-family:'ArialRoundedMTBold';}
	.st65{font-size:43.8609px;}
</style>
<path class="st0" d="M65.9,0.2h17C68.9,24,55.3,47.3,41.4,71.1c-3.2-5.5-6.3-10.6-9.3-15.8L1.6,2.8C0,0.1,0,0,3.4,0h16.7
	c-1.5,1-1.7,2-0.7,3.6c6.9,11.5,13.5,23.2,20.3,34.7c1.7,2.9,1.8,2.9,3.5-0.1c7-11.8,13.8-23.7,20.7-35.5C64.4,1.8,65,0.9,65.9,0.2z
	"/>
<path class="st1" d="M492.1,10.2c-1.5-0.6-2,1.4-2.8,2.3c-4.5,5.6-8.9,11.3-13.3,17c-4.3,5.5-11.3,5.5-14.3,0c0.1-1.2,1.2-1.4,1.9-2
	c2.7-2.5,6.2-4.3,7-8.3c1.3-3.9-0.2-7.1-4.2-8.9c0-0.1-0.1-0.2-0.1-0.3c-7.9-5.4-25.3,0-30.2,5c-1.7,1.8-3.4,3.5-5.2,5.1
	c-0.5,0.4-1.9,0.5-1.1,1.6s1.6,0.5,2.3-0.2c2.9-0.9,5.4-2.6,8.1-3.9c0.5-0.2,1.2-1.4,1.8-0.1c0.7,0.9,0.1,1.8-0.2,2.5
	c-5.1,12.4-10.4,24.9-16.9,36.6c-0.6,1.2-1.9,2.1-1.4,3.7c1,0.4,2-0.9,2.7-0.2s-0.2,1.8-0.6,2.7c-0.5,1.3-0.5,1.3,0.5,2.3
	c1-2.4,2.1-4.6,4.4-6c0.2-0.2,0.3-0.5,0.3-0.8c-0.1-2.5,2.2-1.3,3.2-2c0.7-0.4,1.3-1,2-1.3c1.8-0.9,3.5-2.3,5.7-1.9l-0.2,0.1
	c-2-0.1-3.5,1.3-5.3,1.8c-1.2,0.8-1.6,1.5,0.2,2c3.6-1.5,7.6-1.8,10.8-4.2c4.1-2.6,8.1-5.4,11.9-8.4c2.1-1.7,3.9-3.7,5.2-6.1
	c1.2-1.6,2.5-2.3,4-0.4c-0.3,1.1-0.8,2-1.4,2.9c-1.8,2.7-3.6,5.5-5.3,8.2c-1.5,2.5-1,3.9,1.5,4.4c2.1-2.5,3.8-5.2,5.8-7.8
	c2.8-3.5,4.8-7.6,8.3-10.4c2-0.5,3.8-2.1,6-0.9c-0.2,3.1-1.5,5.9-2.4,8.8c-1.5,5.1-3.1,10.1-4.5,15.3c-0.2,0.9-1.6,2.6,0.8,3
	c0.9-1.5,1.5-3.1,2-4.8c0,0.4,0.1,0.9,0.5,1.1c2.3-1.4,1.8-4.1,3-6l0,0c2.8-7.3,4-15.1,7.6-22.1v-1c-0.4-1.6,0.5-3.1,0.7-4.7
	c0.6-1.2,0.2-2.6,1.1-3.7c0.1-0.3,0.2-0.6,0.2-0.9c0-1.9,0.4-3.7,1.1-5.4C493.9,12.7,493.6,10.9,492.1,10.2z M466.2,10.5
	c-0.3,0.2-0.7,0.3-1,0.1C465.5,10.7,465.9,10.6,466.2,10.5z M442.5,52.9c1.2-0.8,2.4-1.5,3.7-2.1C445.1,51.3,443.8,52.1,442.5,52.9z
	 M457,38.5c-2.4,3.4-5.9,5.5-9.3,7.7c-4.5,2.8-9,5.6-14.2,7.1c-0.3-1.6,0.7-2.8,1.4-4.1c1-2.1,2.3-4.2,3.1-6.4
	c1.3-3.5,3.4-5.9,7.4-6.3c1.8-0.4,3.5-1.2,5.3-1.7s3.5-1.3,5.1,0.1C458.1,35.5,458.3,36.7,457,38.5z M444.7,30.1
	c0.3-3.1,1.8-5.8,3-8.6c0.8-1.7,1.7-3.4,2.3-5.1s1.8-3,4-2.6l0,0c2.3,0.3,4.6-1.3,6.9-0.1c0.9,1.4,3.3,0.8,3.6,2.6S462.9,19,462,20
	C457.8,25.6,451.6,29.2,444.7,30.1z M484.4,29.1c-0.7,0.6-1.4,1.3-1.9-0.2c0.7-2,1.6-3.7,3.7-4.5C486,26.1,485.8,27.9,484.4,29.1
	L484.4,29.1z"/>
<path class="st2" d="M65.3,0.2c-0.7,3.1-2.8,5.4-4.3,8.1c-6.3,11-12.8,22-19.2,32.9c-0.3,0.5-0.7,1-1.1,1.4c-4-6.8-7.8-13.4-11.6-20
	S21.6,9.7,17.8,3.3c-1.7-2.9-1.7-2.9,1.7-3.3c2.9,0,5.8,0.2,8.7-0.1c2.3-0.2,3.6,0.6,4.6,2.7c2.5,4.6,5.2,9,8,13.9
	c2.9-5,5.6-9.6,8.2-14.2c0.6-1.6,2.3-2.6,4-2.4C57.1,0.2,61.2,0.1,65.3,0.2z"/>
<path class="st1" d="M573.7,39.7c-1.9-1.4-3.8,0.2-5.6,0c-0.6,0-1.6,0.7-1.5-0.8c-5.4,0.6-10.8,1.6-16.2,1.6
	c0.3-1.6,1.2-2.9,1.5-4.5c0.2-1.1,0.6-2.1,1.2-3c3.2-6.6,5.9-13.4,7.9-20.5c-0.1-0.6-0.4-1.2-0.2-1.7c1.4-3.8-0.6-4.8-3.1-4.6
	c-6.5,0.3-13,0.3-19.3,2.3l0,0c-0.9,0-1.8,0.1-2.7,0c-2.5-0.3-4.9,1-6,3.2c-1.3,2.1-1.2,4.4-2.4,6.5c-3.7,7.1-7.1,14.4-10.1,21.8
	c-0.3,0.8-0.6,1.9-1.3,2.3c-1.2,0.5-1.8,1.9-1.3,3.1c0.2,0.5,0.6,1,1.1,1.2c2.7,1.3,2.9,3.3,2.2,5.9c1.1-0.6,1.7-1.8,1.6-3
	c0.7-1.4,0.8-3.5,3-3.5c4.7,0.1,9.1-1.5,13.8-1.3c2.9,0.1,5.2-2.5,8.2-2c0.8,0.1,1.5,0.4,1.7,1.4c2.6,0.1,5.3,0,7.9-0.3
	c-0.2,0.2-0.3,0.4-0.4,0.6c1.6,0.4,3.2-0.2,4.8,0.6c1.3-0.4,2.6-0.4,3.9-0.8c1.1-0.3,2.3,0,3.4-0.7c0.5-0.3-0.8-1,0.2-0.7
	c1.4,0.3,2.9,0.3,4.3,0c1.9-0.2,4.1-0.3,5.2-2.3C575.4,39.7,574.2,40.3,573.7,39.7z M540.3,9.1c-0.4,0-0.8,0-1.1-0.1
	C539.5,9.1,539.9,9.1,540.3,9.1z M546.7,38.8c-0.9,2.3-2.1,2.8-4.2,2.6c-0.8-0.2-1.8,0-2.3-0.9c-2.4-0.9-4.8-0.4-7.2-0.2
	c-3.1,0.2-6.2,0.8-9.3,0.4c0.1-3.9,2.8-6.9,3.9-10.4c0.3-0.9,1.4-0.9,2.3-1.1c3.9-0.6,7.7-1.6,11.7-1.8c1,0,2-0.4,2.6-1.2
	c1.4-2.5,1.1-3-1.8-3h-11.3c-0.7-2,1.4-3,1.6-4.7c0.7-0.9,1.5-1.8,2.4-2.5c0.8-2.2,3-2.3,4.8-2.9c1-0.3,2.1-0.6,3.1-0.7
	c2.4-0.2,4.8-0.6,7.2-1.2c1.5-0.9,3.7-0.3,4.9-2.1c0.3-0.5,1.3-0.3,1.8,0.4c-0.2,5.1-3,9.3-4.9,13.8C550,28.5,548.8,33.8,546.7,38.8
	L546.7,38.8z M555,44h1C555.8,44.2,555.4,44.1,555,44z"/>
<path class="st1" d="M521.1,12.9c-2.1-0.4-2.1-0.4-1.9-1.2c-1.7-1.2-3.8-1.7-5.9-1.6c-8.1,0.4-15.1,3.1-20,9.9
	c0.2,0.2,0.4,0.4,0.7,0.4c1.4-0.3,2.8-0.8,4-1.6c0.9-0.6,1.9-1.8,3.3-1c0,1.4-0.3,2.8-1,4c-3.8,8.8-7.6,17.7-12.3,26.2
	c-0.4,0.7-1.4,2-0.4,2.3c2.1,0.6,1,2,1.3,3.1c1.8-0.8,2-3.3,4.1-3.8c0.4-0.8,1.1-1.3,2-1.4c0.8-0.2,1.5-0.7,1.9-1.4
	c1.2-1.7,3.2-1.6,5-2.3s2.6-2,4.1-2.5c-0.5,0.7-2.3,0.5-1.8,2.2c0.3,0.3,0.8,0.4,1.2,0.4c3.3-1.6,6-4,8.9-6.2
	c1.8-1.4,3.3-3.1,4.2-5.2c1.1-1,0.4-2.1,0-3c-0.6-1.1-1.3-2.2-2-3.3c0.3-1.5,1.7-2.1,2.8-2.9c2.2-1.6,3.7-4.1,4-6.8
	C523.7,15.2,522.7,13.9,521.1,12.9z M512.2,34c-4.9,4.6-10.7,8.1-17.1,10.2c1-3.9,2.7-7.6,5-10.9c1.3-2.1,10.7-3.5,13.1-2.3
	C513.4,32.1,513,33.3,512.2,34L512.2,34z M517,19.4c-3.4,4-8.1,6.9-13.2,8.2c0.2-1.3,0.3-2.5,0.5-3.6c1.4-2.2,2.2-4.8,3.4-7.1
	c0.5-1.1,1.1-2.1,2.6-1.9c2.1,0.2,4.2-0.5,6.2,0.5S518.7,17.3,517,19.4z"/>
<path class="st3" d="M230.6,40c1-3.7,1.8-6.6,2.5-9.5c1.1-4.5,1.1-4.5,6.2-3.9c-1.8,5.8-3.4,11.5-5.3,17.3c-0.7,2.2-2.8,0.8-4.2,1.1
	c-1.2,0.2-1.8-0.3-2.1-1.5c-0.9-3.4-2-6.7-3.2-10.8c-1.2,4.1-2.2,7.3-3.1,10.6c-0.4,1.3-0.9,2-2.2,1.7s-3.4,1.1-4.1-1.2
	c-1.8-5.7-3.5-11.5-5.2-17.2c5-0.5,5-0.5,6.1,4c0.8,2.9,1.5,5.7,2.5,9.3c1.2-4.1,2.3-7.5,3.1-11c0.4-1.9,1.1-2.5,3.1-2.6
	c2.3-0.1,2.6,1.1,3,2.8C228.4,32.4,229.4,35.8,230.6,40z"/>
<path class="st3" d="M279.8,31.7c-1.2-3.4-4.3-5.7-7.9-5.9c-2.3-0.1-4.2,0.8-6.4,2.2c0-2.5-0.1-4.7,0-6.8c0.1-1.8-0.3-2.5-2.3-2.4
	c-1.7,0.1-2.7,0.2-2.6,2.4c0.2,7,0,14.1,0.1,21.1c0,2.5,2.2,3.9,4.1,2.4c1-0.8,1.3-0.7,2.2-0.3c3.2,1.8,7.2,1.4,10.1-1
	C280.2,40.9,281.3,35.8,279.8,31.7z M270.4,41.5c-3-0.1-4.9-2.4-4.8-5.9s2.1-5.7,5.1-5.6c2.9,0.1,5,2.6,5,5.9S273.3,41.5,270.4,41.5
	z"/>
<path class="st3" d="M300.3,29.3c-2.8-3.6-7.1-4.3-11.8-2c-0.6,0.3-0.9,0.9-1.5-0.2c-0.8-1.5-2.5-0.7-3.7-0.5s-0.6,1.5-0.6,2.3
	c0,7.1,0,14.3-0.1,21.4c0,1.8,0.7,2,2.1,1.9s3,0.5,2.8-1.8c-0.1-2.1,0-4.3,0-6.4c0.3,0,0.5,0,0.8,0c4.5,2.6,8.9,2.2,11.6-1
	C303,38.8,303.1,33.3,300.3,29.3z M292.5,41.5c-3,0-5.1-2.3-5.2-5.7s2.1-5.8,5-5.9s5.1,2.2,5.1,5.7S295.4,41.4,292.5,41.5z"/>
<path class="st3" d="M356.5,26.7c-1.3,1.9-2.8,3.7-4.3,5.5c-2,2-1.8,3.5-0.1,5.6s3.2,4.5,5,7.1c-3.1,0.4-5.6,1-7.2-2.4
	C348.8,40,347,38,345,35c0,3.3-0.1,5.7,0,8.1c0.1,2.1-1.2,1.9-2.5,1.9s-2.4,0-2.4-2c0.1-7.4,0.1-14.9,0-22.3c0-2.1,1.1-1.9,2.4-1.9
	s2.6-0.2,2.5,1.9c-0.1,4.3,0,8.6,0,13.8c1.3-1.6,2.6-3.2,3.8-5C350.5,26.8,352.8,25.6,356.5,26.7z"/>
<path class="st3" d="M320.1,42.5c-0.1-1.6-0.1-3.2,0-4.8v-3.9c0-6-3.2-8.8-9.1-8c-1.4,0.2-2.7,0.6-4,1c-0.9,0.3-2.5,0.3-1.6,2.1
	c0.6,1.1,1,2.4,2.8,1.4c1.6-0.8,3.3-0.9,5-0.4c1.4,0.3,2.3,1.6,2.1,3v0.2c-0.4,1.8-1.6-0.2-2.4,0.1c-0.5,0.2-1.2-0.2-1.8-0.2
	c-2.9,0-5.4,0.9-6.8,3.5c-1.2,2.1-0.9,4.6,0.7,6.4c1.7,2.2,4.6,3.1,7.3,2.3c1.7-0.6,3.5-0.7,5.3-0.3
	C319.4,45.5,320.3,44.6,320.1,42.5z M311.9,42c-2,0-3.6-0.8-3.5-2.9s1.6-2.8,3.6-2.8s3.2,0.9,3.3,2.8C315.3,41.2,313.8,42,311.9,42z
	"/>
<path class="st3" d="M252.6,26.4c-4.3-1.6-9.1,0.2-11.4,4.1c-2.2,4.2-1.5,9.2,1.8,12.6c3.1,2.9,9.1,3.3,12.8,0.7
	c0.8-0.6,2.5-1.2,1.4-2.6c-0.9-1.1-1.9-2.3-3.9-0.7c-2.2,1.8-5.6,1.5-7.4-0.8c0,0,0,0,0,0l0,0c0,0,0-0.1-0.1-0.1
	c-0.6-0.6-0.8-1.4-0.7-2.2c0.3-1.1,1.3-0.6,2-0.6c1.5-0.1,3,0,4.5,0h5.4c1,0,1.3-0.4,1.4-1.4C258.8,31.4,256.4,27.6,252.6,26.4z
	 M253.4,33c-0.2,1.8-1.9,0.5-3,0.9c-0.4,0.1-0.8,0.1-1.2,0l-4-0.8c-0.2-1.3,0.9-2.4,2-3c1.1-0.7,2.5-0.7,3.8-0.2
	C252.4,30.5,253.5,31.6,253.4,33L253.4,33z"/>
<path class="st4" d="M187.3,27.6c-4.2,2.4-8,4.6-11.7,6.8c-0.7,0.4-1.6,0.4-2.2-0.1c-3.7-2.2-7.4-4.3-11.6-6.7
	c4.3-2.4,8.2-4.5,12.2-6.7c0.7-0.4,1.4,0,2,0.4L187.3,27.6z"/>
<path class="st4" d="M160.9,29.5l11.4,6.5c0.8,0.3,1.4,1.1,1.4,2v12.2c-4.2-2.3-8-4.4-11.9-6.5c-0.6-0.3-1-1-0.9-1.7L160.9,29.5z"/>
<path class="st4" d="M175.5,50.2V38c-0.1-0.8,0.4-1.6,1.1-1.9c3.7-2.1,7.4-4.2,11.6-6.6v13c0,1-0.7,1.3-1.4,1.7L175.5,50.2z"/>
<path class="st3" d="M336.8,31.5c-3.9-2.2-6.1-2.1-8.2,0c-2.4,2.1-2.7,5.7-0.6,8.2c1.7,2,4.7,2.6,7,1.4c0.9-0.4,1.8-1.5,2.3,0.3
	c0.4,1.3,1.1,2.5-0.9,3.3c-4,1.8-9.4,0.9-12.1-2.3c-3.1-3.7-3.2-9.1-0.2-12.8c3-3.5,8-4.6,12.2-2.6
	C339.6,28.3,336.8,29.9,336.8,31.5z"/>
<path class="st5" d="M173.7,10.1v7.3c0,1.3-1,1.9-1.9,2.4c-3.5,1.9-7,3.8-10.4,5.8c-0.9,0.7-2.1,0.7-3,0c-1.7-1.2-3.6-2.2-5.9-3.6
	L173.7,10.1z"/>
<path class="st5" d="M173.7,61.5c-6.7-3.8-12.9-7.3-19.2-10.7c-1.1-0.6-1.2-1.2-0.1-1.9c1.8-1.1,3.6-2.1,5.4-3.1
	c0.8-0.5,1.3,0,1.9,0.3c3.5,1.9,7,3.9,10.5,5.7c1,0.5,1.6,1.5,1.5,2.6C173.7,56.6,173.7,58.7,173.7,61.5z"/>
<path class="st5" d="M196.8,22.1c-2.3,1.4-4.2,2.4-6,3.6c-0.8,0.6-1.9,0.6-2.8,0c-3.5-2-7.1-4-10.7-5.9c-1.1-0.5-1.8-1.6-1.8-2.8
	c0.1-2.1,0-4.1,0-6.7L196.8,22.1z"/>
<path class="st5" d="M175.5,61.4c0-2.7,0.1-5,0-7.2c-0.1-1.1,0.6-2.1,1.7-2.5c3.4-1.8,6.8-3.7,10.2-5.6c0.6-0.5,1.5-0.6,2.2-0.1
	c1.9,1.4,4.3,2.1,6.4,4L175.5,61.4z"/>
<path class="st5" d="M197.7,24.4V46c0,1.4-0.2,2-1.9,1.3c-5-2.2-5.4-2.8-5.4-8.1v-5C190.5,27.5,190.8,27.1,197.7,24.4z"/>
<path class="st6" d="M151.7,24.2c2.1,1.2,3.9,2.3,5.8,3.3c0.8,0.4,1.3,1.3,1.2,2.2v12.8c0.1,1-0.4,2-1.4,2.4c-1.8,1-3.6,2-5.7,3.2
	L151.7,24.2z"/>
<path class="st3" d="M392.6,29.4c2,0.1,1.9,1.3,1.8,2.2c-0.4,2.5,0.4,3.7,3.1,3.2c1-0.2,2.1-0.1,2.1,1.3s-1,1.8-2.1,1.6
	c-2.8-0.5-3.5,0.8-3.1,3.2c0.1,0.9,0.2,2.1-1.3,2.2c-1.7,0.1-1.7-1.1-1.6-2.2c0.4-2.5-0.4-3.7-3.1-3.2c-1,0.2-2.1,0.1-2.1-1.3
	s1-1.8,2.1-1.6c2.7,0.5,3.5-0.7,3.1-3.2C391.4,30.4,391.4,29.2,392.6,29.4z"/>
<path class="st3" d="M109.5,44.8c-1.1,0.1-1.2-1-1.1-2c0.3-2.5-0.3-4-3.2-3.4c-1.1,0.2-2,0-2.1-1.4c0-1.6,1.1-1.7,2.2-1.5
	c2.5,0.4,3.4-0.5,3-3c-0.2-1-0.4-2.4,1.4-2.4c2,0,1.6,1.5,1.5,2.5c-0.3,2.4,0.7,3.1,2.9,2.8c1.1-0.2,2.3-0.2,2.3,1.4
	s-1.1,1.7-2.2,1.5c-2.5-0.4-3.4,0.5-3,3C111.4,43.5,111.7,44.8,109.5,44.8z"/>
<path class="st7" d="M505.7,43.8c4.6-3.3,9.6-6.3,13-10.9c0.2,0.9-0.1,1.8-0.8,2.4c-4.4,5.1-10.1,9.1-16.4,11.5
	c-0.6,0.2-1.2,0.3-1.5-0.5C501.4,44.5,503.6,44.2,505.7,43.8z"/>
<path class="st8" d="M447.3,52.7c4.3-3.2,8.7-6.3,12.9-9.6c1.6-1.3,2.9-3,3.9-4.9c0.5-0.2,0.8,0.1,0.7,0.6c-2,3.5-4.8,6.4-8.1,8.5
	c-2.9,2-5.7,3.9-8.5,5.9C447.7,53.3,447.3,53.4,447.3,52.7z"/>
<path class="st9" d="M551.6,36.3c0.3-3.3,2.4-5.8,3.5-8.7c2-5,3.9-10.1,5.9-15.1c-0.5,5.4-3.1,10.2-4.9,15.1c-1.2,3.2-3.3,6-4,9.4
	C551.6,37.1,551.3,37,551.6,36.3z"/>
<path class="st10" d="M519.7,49.5c-0.1-2.8,1.2-4,4-4.2c4.3-0.2,8.7-0.7,13-1c0.8,0.5,1.8-0.2,2.5,0.5c-4.6,0.6-9.2,1.4-13.9,1.6
	C522.7,46.6,520.8,47.2,519.7,49.5z"/>
<path class="st11" d="M463.1,53.7c3.8-6.3,8.4-12.1,12.8-18c0.2-0.3,0.9-0.4,1.3-0.6c0.1,0.1,0.2,0.3,0.2,0.5c0,0.2-0.1,0.2-0.1,0.2
	c-4.5,4.9-7.9,10.8-12.1,16C464.7,52.6,464.5,53.8,463.1,53.7z"/>
<path class="st12" d="M482.7,52c0.1-3.9,2.3-7.3,3.1-11c0.6-2.8,1.6-5.5,2.4-8.2c0.4-1.1,1.1-2.1,2.1-2.8c0.2,2.4-1.6,4-2.2,6.1
	C486.5,41.4,485.5,47,482.7,52z"/>
<path class="st13" d="M562.2,44.1c3.8-1.8,8.1-1.3,12-2.7c0.5-0.2,1.2-0.1,1.5-0.7c1.3,1.6-0.2,1.8-1.2,2c-3.4,0.7-6.9,1.4-10.3,2.1
	C563.6,44.3,562.7,44.9,562.2,44.1z"/>
<path class="st14" d="M447.3,52.7l0.9,0.5c-4.6,3-10,3.8-14.8,6c-1.2-0.6-0.3-1.1,0.1-1.5c0.9-0.8,2.1-0.5,3.1-0.9
	C440.1,55.4,443.9,54.7,447.3,52.7z"/>
<path class="st15" d="M461.7,29.5c-1.1-1.2,0.3-1.6,0.8-2c3.3-2.3,6.3-4.8,8.1-8.4c0.1,2-0.7,3.9-2.3,5.1
	C466.2,26.1,464,27.9,461.7,29.5z"/>
<path class="st16" d="M432.1,21.5c0.4-2.2,2.8-0.9,4-2.2c1.4-1.6,3.6-2.2,5.6-3c0.4-0.2,1-0.6,1.2,0c0.2,0.6-0.6,0.9-0.9,1.3
	c-1,0.3-2,0.7-2.9,1.2C436.9,20.1,434.8,21.6,432.1,21.5z"/>
<path class="st17" d="M516.7,26.6c-1.6-1.1,0-1.5,0.5-1.8c3-2,5.3-4.4,6.2-7.9c0.6,3.4-1.3,5.5-3.8,7.3
	C518.6,25,517.6,25.8,516.7,26.6z"/>
<path class="st18" d="M573.8,39.7c-2.9-0.1-5.6,1.3-8.7,0.6l1.6-1.3c1.5-0.2,3.1-0.4,4.7-0.5C572.3,38.3,573.6,38,573.8,39.7z"/>
<path class="st19" d="M546.3,44.2c4-0.6,8-0.9,12-0.8c-1.6,1.4-3.2,0.5-4.4,1.1l-6.4,0.7C546.8,45.3,546.5,44.9,546.3,44.2z"/>
<path class="st20" d="M494,19.8c2.2-1.1,4.4-2.1,6.6-3.2c0.4-0.2,0.9-0.7,1.2,0c0.1,0.2-0.3,0.7-0.5,1c-2.5,0.3-4,3.1-6.7,3
	C494,20.5,493.8,20.3,494,19.8z"/>
<path class="st21" d="M436.5,56.8c-0.8,1.2-3.1,0.3-3.2,2.4c-0.2,0.4-0.7,0.5-1.1,0.4c-0.5-0.4-1.4,0.2-1.8-0.5v-0.5
	c0.5-1.8,2.8-1.1,3.6-2.6c0.3-0.7,1-1.1,1.8-1.1c0.4,0.1,0.7,0.4,0.8,0.8C437,56.1,434.3,56.2,436.5,56.8z"/>
<path class="st12" d="M479.6,58.3c1.6-1.8,1.4-4.6,3.2-6.3c-0.1,3.2-1.9,5.8-3.2,9.4l-0.5-2.2C479,58.8,479.2,58.5,479.6,58.3z"/>
<path class="st22" d="M464.8,38.8l-0.7-0.6c1.2-1.9,3.3-2.4,4.9-1.1c0.6,0.5-0.5,0.6-0.5,1.1C467.2,38.3,465.9,38.1,464.8,38.8z"/>
<path class="st23" d="M539.2,44.9c-0.8-0.2-1.8,0.2-2.5-0.5c2.2,0.1,3.8-2.2,6.1-1.8c0.6,0.1,1.4-0.4,1.9,0.4
	C543.2,44.5,540.7,43.2,539.2,44.9z"/>
<path class="st24" d="M430.5,59l1.8,0.5c-3.8,0.1-4.1,3.9-6.2,5.7C426.2,62.3,427.9,60.3,430.5,59z"/>
<path class="st25" d="M477.2,35.9v-0.7c1.4-1.1,3.2-1.1,4.8-1.8c1-0.4,1.3,0.4,1.2,1.3C481.1,34.5,479.3,35.7,477.2,35.9z"/>
<path class="st26" d="M479.6,58.3c-0.2,0.3-0.4,0.6-0.5,0.9c-0.9,0.7-0.7,2-1.8,2.5l2.2-7.1l0.5,0.1C479.8,56,479.7,57.1,479.6,58.3
	z"/>
<path class="st27" d="M500.1,46.2l1.4,0.5l-7.4,2.9c-0.3-0.7,0.1-1.1,0.6-1.5C496.5,47.7,497.7,45.3,500.1,46.2z"/>
<path class="st28" d="M488.9,53c1.3-1.3,1.4-3.8,3.9-4c0.5,0.7-0.1,0.9-0.5,1.2c-1.4,0.8-1.5,2.7-3,3.5c-0.1,0-0.2,0-0.2-0.1
	C489,53.4,488.9,53.2,488.9,53z"/>
<path class="st29" d="M521.1,12.6c-1.4,1-2.6,0.1-4-0.5c0.6-0.9,1.4-0.6,2.1-0.7C519.9,11.5,520.6,12,521.1,12.6z"/>
<path class="st30" d="M562.2,44.1c0.7,0.2,1.4,0,2,0.6c-1.8,0.1-3.6,1.1-5.5,0.5C559.5,43.6,561,44.2,562.2,44.1z"/>
<path class="st31" d="M492.2,50.1c0.2-0.4,0.7-0.6,0.5-1.2c0-1.3,0.6-1.9,1.9-1.7c0.3,0.3,0.3,0.8,0,1.1l0,0l-0.7,1.3
	C493.5,50,492.9,50.3,492.2,50.1z"/>
<path class="st32" d="M494,19.8c0.2,0.2,0.4,0.5,0.6,0.8c-0.6,0.7-1.2,1.3-2.3,1c-0.5-0.3-0.7-0.8-0.6-1.3c0-0.1,0-0.2,0-0.3
	c0.4-0.4-0.1-1.4,1-1.3l0.6,1.1L494,19.8z"/>
<path class="st33" d="M492.7,18.6l-1,1.3c0.3-1.9,0-4,1.6-5.5C493.2,15.8,492.9,17.2,492.7,18.6z"/>
<path class="st34" d="M551.6,36.3l0.5,0.7c-0.3,1.2-0.9,2.4-1.7,3.4C549,38.6,551.4,37.8,551.6,36.3z"/>
<path class="st35" d="M490.3,29c-1.3-1.7,0.3-3.2,0.4-4.8c0.5-0.1,0.8,0,0.5,0.6C490.8,26.1,490.6,27.5,490.3,29z"/>
<path class="st36" d="M491.1,24.6c-0.2-0.2-0.3-0.4-0.5-0.6c0.5-1.3,0.1-2.7,1.1-3.9c0.5,0.3,0.5,0.8,0.6,1.3
	C491.2,22.4,492,23.8,491.1,24.6z"/>
<path class="st37" d="M445.4,37c-3.8,0.3-5.8,2.6-7.1,5.9c-1.4,3.5-3.2,6.9-4.9,10.4c-0.7,0.2-1.3,0.3-0.8-0.7
	c2.4-4.9,4.8-9.7,7.3-14.5c0.8-1.6,2.8-1.1,4.2-1.7C444.8,36.3,445.5,36,445.4,37z"/>
<path class="st38" d="M454.1,13.8c-2.5,0.4-3.4,2.2-4.3,4.2c-1.6,4-3.4,8-5.1,12.1c-1.3-2,0.5-3.5,1.1-5.1c1.3-3.4,2.7-6.7,4.5-9.9
	C451,13.5,452.2,12.4,454.1,13.8z"/>
<path class="st39" d="M436.6,55.6l-0.8-0.8c1.9-1,3.2-3.7,6-1.8c0.2,0.1,0.3,0.3,0.3,0.5c0,0,0,0,0,0l0,0
	C440.1,54,438.6,55.5,436.6,55.6z"/>
<path class="st40" d="M442,53.6c0-0.2-0.1-0.4-0.2-0.5c2.3-2.3,5.5-3.1,8.3-4.7C448,51,444.7,51.8,442,53.6z"/>
<path class="st41" d="M461,13.8c-2.3-0.1-4.6,1.4-6.9,0.1C456.4,13,458.7,11.9,461,13.8z"/>
<path class="st42" d="M486.2,24.4c-1.2,1.5-2.5,3-3.7,4.5c-0.4-0.1-1-0.2-0.8-0.5c1.1-1.8,2.5-3.5,4-5C486.7,22.5,486,24,486.2,24.4
	z"/>
<path class="st43" d="M434,56c1,1-0.2,1-0.6,1.3c-0.9,0.5-1.9,0.9-2.9,1.3c-1.4-1.5-0.3-2,1-2.3C432.3,56.2,433.2,56.1,434,56z"/>
<path class="st44" d="M455.8,35c-1.8-0.4-3.7-0.3-5.5,0.4c-0.6,0.3-1.2,0.5-1.2-0.5C451.3,34.2,453.6,32.4,455.8,35z"/>
<path class="st45" d="M449.1,34.8l1.2,0.5l-4.9,1.7l-1.3-0.6L449.1,34.8z"/>
<path class="st46" d="M466.4,10.3c-0.4,1.3-1.2,1.3-3.3-0.2C464.3,9.4,465.4,10.6,466.4,10.3L466.4,10.3z"/>
<path class="st47" d="M544.3,26.4c1.1,1.3-0.2,1.2-0.8,1.3c-3.9,0.6-7.8,1.4-11.7,1.8c-2.5,0.3-4.1,1.1-4.9,3.7s-2.1,5.1-3.1,7.6
	c-0.6,0.1-1,0-0.7-0.7c1.4-3.3,2.8-6.5,4.2-9.8c0.5-1.2,1.6-1.3,2.7-1.5l12.9-2C543.4,26.6,543.9,26.5,544.3,26.4z"/>
<path class="st48" d="M557,9.8c-2.3,0.6-4.2,2.3-6.6,2.3c-0.7,0.4-1.2,0.4-1.2-0.6c1.8-1.5,4.4-1.2,6.2-2.8c0.5-0.4,1.1-0.3,1.5,0.2
	C557,9.1,557.1,9.5,557,9.8z"/>
<path class="st49" d="M549.2,11.4c0.2,0.5,0.7,0.6,1.2,0.6c-2.4,0.5-4.6,1.6-7.1,1.2c-0.3-0.2-0.4-0.6-0.2-0.9c0,0,0-0.1,0.1-0.1
	C545,10.4,547.1,11.1,549.2,11.4z"/>
<path class="st50" d="M543.2,12.2l0.1,1c-2.7,1-6.2,0.3-7.9,3.6c-0.6,0.1-0.8-0.2-0.6-0.7c0.7-2.8,3.3-2.7,5.3-3.4
	C541.1,12.4,542.1,12.3,543.2,12.2z"/>
<path class="st51" d="M538.4,8.5h4.3C541.3,9.4,539.8,11,538.4,8.5L538.4,8.5z"/>
<path class="st52" d="M540.3,40.5c0.8,0,1.7,0.3,2.3,0.9c-1.8,0.7-3.6,0.4-5.5,0.1L540.3,40.5z"/>
<path class="st53" d="M558.5,11.2c0.5-1.1-0.3-2.9,1.9-3.2C560.3,9.3,559.6,10.5,558.5,11.2z"/>
<path class="st54" d="M533.3,18.7l-2,4.7c-1.6-2.1,1.1-3.1,1.2-4.8C532.7,18.4,533.1,18.4,533.3,18.7L533.3,18.7z"/>
<path class="st55" d="M561.8,40.8c-1.2,0.7-2.3,1.4-3.9,0.6C559.2,40.2,560.6,40.8,561.8,40.8z"/>
<path class="st56" d="M533.3,18.7h-0.8c0.4-1.1,0.9-2.2,2.3-2.5l0.6,0.7L533.3,18.7z"/>
<path class="st57" d="M513.2,31.1c-2.6-1.2-4.9,0.4-7.4,0.6c-4.9,0.5-6.7,3.7-8.3,7.5c-0.7,1.7-1.5,3.4-2.3,5.1
	c-0.7,0.2-1.3,0.2-0.8-0.7c1.7-3.5,3.4-6.9,5.2-10.4c0.2-0.4,0.6-0.9,1-1c4-0.7,7.5-3.3,11.8-2.5C513.7,30,512.8,30.7,513.2,31.1z"
	/>
<path class="st58" d="M494.7,48.3v-1.1c0.8-0.1,1.4-0.5,1.8-1.2c1.6-1,3.5-1.2,5.2-2c0.8,0,1.4-1.1,2.4-0.5l1.6,0.2
	c-1.7,1.1-3.6,1.9-5.6,2.4L494.7,48.3z"/>
<path class="st59" d="M516.4,15h-6.8c-0.3-0.3-1-0.1-1.2-0.6C511.1,14.1,513.9,12.6,516.4,15z"/>
<path class="st60" d="M508.4,14.4l1.2,0.6c-2.3,1.2-2.4,3.8-3.5,5.8c-0.6,1-0.6,2.3-1.9,2.8C505.1,20.3,506.5,17.2,508.4,14.4z"/>
<path class="st61" d="M501.9,44.3c-1.6,1.1-3.5,1.6-5.4,1.7c1.2-2.1,3.4-2,5.4-2.4C502.2,43.9,502.2,44.1,501.9,44.3z"/>
<path class="st62" d="M501.9,44.3v-0.7l5.9-3.5c-1,2.3-2.9,2.2-3.8,3.4L501.9,44.3z"/>
<text transform="matrix(1.0394 0 0 1 61.0302 71.1204)" class="st63 st64 st65">2</text>
</svg>
